<?xml version="1.0" encoding="utf-8"?>
<!-- Generator: Adobe Illustrator 24.1.2, SVG Export Plug-In . SVG Version: 6.00 Build 0)  -->
<svg version="1.1" id="Layer_1" xmlns="http://www.w3.org/2000/svg" xmlns:xlink="http://www.w3.org/1999/xlink" x="0px" y="0px"
	 viewBox="0 0 353 359" style="enable-background:new 0 0 353 359;" xml:space="preserve">
<style type="text/css">
	.st0{fill:url(#SVGID_1_);}
	.st1{fill:url(#SVGID_2_);}
	.st2{fill:url(#SVGID_3_);}
	.st3{fill:url(#SVGID_4_);}
	.st4{fill:url(#SVGID_5_);}
	.st5{fill:url(#SVGID_6_);}
	.st6{fill:url(#SVGID_7_);}
	.st7{fill:url(#SVGID_8_);}
	.st8{fill:url(#SVGID_9_);}
</style>
<linearGradient id="SVGID_1_" gradientUnits="userSpaceOnUse" x1="51.5" y1="426" x2="51.5" y2="-52.602" gradientTransform="matrix(1 0 0 -1 0 362)">
	<stop  offset="0" style="stop-color:#00EFD1"/>
	<stop  offset="1" style="stop-color:#00ACEA"/>
</linearGradient>
<path class="st0" d="M93,0H10C4.5,0,0,4.5,0,10v83c0,5.5,4.5,10,10,10h83c5.5,0,10-4.5,10-10V10C103,4.5,98.5,0,93,0z M84,84H20V20
	h64V84z"/>
<linearGradient id="SVGID_2_" gradientUnits="userSpaceOnUse" x1="176.5" y1="426" x2="176.5" y2="-52.602" gradientTransform="matrix(1 0 0 -1 0 362)">
	<stop  offset="0" style="stop-color:#00EFD1"/>
	<stop  offset="1" style="stop-color:#00ACEA"/>
</linearGradient>
<path class="st1" d="M218,0h-83c-5.5,0-10,4.5-10,10v83c0,5.5,4.5,10,10,10h83c5.5,0,10-4.5,10-10V10C228,4.5,223.5,0,218,0z
	 M209,84h-64V20h64V84z"/>
<linearGradient id="SVGID_3_" gradientUnits="userSpaceOnUse" x1="51.5" y1="426" x2="51.5" y2="-52.602" gradientTransform="matrix(1 0 0 -1 0 362)">
	<stop  offset="0" style="stop-color:#00EFD1"/>
	<stop  offset="1" style="stop-color:#00ACEA"/>
</linearGradient>
<path class="st2" d="M93,126H10c-5.5,0-10,4.5-10,10v83c0,5.5,4.5,10,10,10h83c5.5,0,10-4.5,10-10v-83C103,130.5,98.5,126,93,126z
	 M84,209H20v-63h64V209z"/>
<linearGradient id="SVGID_4_" gradientUnits="userSpaceOnUse" x1="176.5" y1="426" x2="176.5" y2="-52.602" gradientTransform="matrix(1 0 0 -1 0 362)">
	<stop  offset="0" style="stop-color:#00EFD1"/>
	<stop  offset="1" style="stop-color:#00ACEA"/>
</linearGradient>
<path class="st3" d="M218,126h-83c-5.5,0-10,4.5-10,10v83c0,5.5,4.5,10,10,10h83c5.5,0,10-4.5,10-10v-83
	C228,130.5,223.5,126,218,126z M209,209h-64v-63h64V209z"/>
<linearGradient id="SVGID_5_" gradientUnits="userSpaceOnUse" x1="301.5" y1="426" x2="301.5" y2="-52.602" gradientTransform="matrix(1 0 0 -1 0 362)">
	<stop  offset="0" style="stop-color:#00EFD1"/>
	<stop  offset="1" style="stop-color:#00ACEA"/>
</linearGradient>
<path class="st4" d="M343,0h-83c-5.5,0-10,4.5-10,10v83c0,5.5,4.5,10,10,10h83c5.5,0,10-4.5,10-10V10C353,4.5,348.5,0,343,0z
	 M334,84h-64V20h64V84z"/>
<linearGradient id="SVGID_6_" gradientUnits="userSpaceOnUse" x1="301.5" y1="426" x2="301.5" y2="-52.602" gradientTransform="matrix(1 0 0 -1 0 362)">
	<stop  offset="0" style="stop-color:#00EFD1"/>
	<stop  offset="1" style="stop-color:#00ACEA"/>
</linearGradient>
<path class="st5" d="M343,126h-83c-5.5,0-10,4.5-10,10v83c0,5.5,4.5,10,10,10h83c5.5,0,10-4.5,10-10v-83
	C353,130.5,348.5,126,343,126z M334,209h-64v-63h64V209z"/>
<linearGradient id="SVGID_7_" gradientUnits="userSpaceOnUse" x1="51.5" y1="426" x2="51.5" y2="-52.602" gradientTransform="matrix(1 0 0 -1 0 362)">
	<stop  offset="0" style="stop-color:#00EFD1"/>
	<stop  offset="1" style="stop-color:#00ACEA"/>
</linearGradient>
<path class="st6" d="M93,256H10c-5.5,0-10,4.5-10,10v83c0,5.5,4.5,10,10,10h83c5.5,0,10-4.5,10-10v-83C103,260.5,98.5,256,93,256z
	 M84,340H20v-64h64V340z"/>
<linearGradient id="SVGID_8_" gradientUnits="userSpaceOnUse" x1="176.5" y1="426" x2="176.5" y2="-52.602" gradientTransform="matrix(1 0 0 -1 0 362)">
	<stop  offset="0" style="stop-color:#00EFD1"/>
	<stop  offset="1" style="stop-color:#00ACEA"/>
</linearGradient>
<path class="st7" d="M218,256h-83c-5.5,0-10,4.5-10,10v83c0,5.5,4.5,10,10,10h83c5.5,0,10-4.5,10-10v-83
	C228,260.5,223.5,256,218,256z M209,340h-64v-64h64V340z"/>
<linearGradient id="SVGID_9_" gradientUnits="userSpaceOnUse" x1="301.5" y1="426" x2="301.5" y2="-52.602" gradientTransform="matrix(1 0 0 -1 0 362)">
	<stop  offset="0" style="stop-color:#00EFD1"/>
	<stop  offset="1" style="stop-color:#00ACEA"/>
</linearGradient>
<path class="st8" d="M343,256h-83c-5.5,0-10,4.5-10,10v83c0,5.5,4.5,10,10,10h83c5.5,0,10-4.5,10-10v-83
	C353,260.5,348.5,256,343,256z M334,340h-64v-64h64V340z"/>
</svg>
